<?xml version="1.0" standalone="no"?><!DOCTYPE svg PUBLIC "-//W3C//DTD SVG 1.1//EN" "http://www.w3.org/Graphics/SVG/1.1/DTD/svg11.dtd"><svg t="1633006461237" class="icon" viewBox="0 0 1116 1024" version="1.1" xmlns="http://www.w3.org/2000/svg" p-id="7498" xmlns:xlink="http://www.w3.org/1999/xlink" width="69.75" height="64"><defs><style type="text/css"></style></defs><path d="M1076.27428531 506.51428531a37.37142844 37.37142844 0 0 1-8.22857062 12.61714313c-4.04571469 4.04571469-7.81714313 7.54285688-11.04 10.56l-8.43428625 8.09142843a115.26857156 115.26857156 0 0 1-7.74857157 7.06285782l-96.06857156-94.42285782a469.02857156 469.02857156 0 0 0 14.60571469-13.43999999 297.6 297.6 0 0 1 14.12571469-12.34285688 46.90285687 46.90285687 0 0 1 28.52571375-9.87428531h1.44a62.4 62.4 0 0 1 26.4 6.72c7.2 3.77142844 15.15428531 10.14857156 23.86285687 19.40571375 8.70857156 9.18857156 15.42857156 18.99428531 20.36571469 29.00571469a58.62857156 58.62857156 0 0 1 4.66285687 23.17714218 35.31428531 35.31428531 0 0 1-2.46857156 13.44z m-225.46285687 225.87428625a4440 4440 0 0 0-64.25142844 63.22285688 275.65714313 275.65714313 0 0 1-12.82285688 12.13714312c-3.42857156 3.01714313-7.33714312 6.30857156-11.79428625 9.53142844a62.19428531 62.19428531 0 0 1-13.85142843 8.16 253.09714313 253.09714313 0 0 1-21.05142844 8.64 653.89714312 653.89714312 0 0 1-57.80571469 18.10285687 230.81142844 230.81142844 0 0 1-20.36571375 4.52571469 55.95428531 55.95428531 0 0 1-5.55428625 0.34285688c-6.10285687 0-10.49142844-1.37142844-12.82285687-4.32-3.08571469-3.70285688-3.90857156-9.87428531-2.60571375-18.65142844a176.22857156 176.22857156 0 0 1 4.93714218-20.50285688c2.53714313-8.98285687 5.28-18.17142844 8.16-27.77142843 2.94857156-9.66857156 5.76-18.51428531 8.50285782-26.60571469 2.67428531-8.02285688 5.00571469-13.64571469 6.72-16.66285688 2.05714313-4.66285688 4.38857156-8.98285687 6.99428531-12.82285781 2.53714313-3.84 6.24-8.16 11.04-12.82285687l14.46857156-14.46857157c7.47428531-7.54285688 16.86857156-16.93714313 28.25142844-28.11428531l37.50857156-36.82285687 41.69142844-40.93714313 110.4-108.68571469 96.06857156 95.04-110.81142844 108.54857157-41.00571468 40.93714312z m90.92571468-346.56l-0.61714312 0.48c-4.8 3.84-10.42285687 8.70857156-16.52571469 14.46857156-5.55428531 5.21142844-10.28571469 9.39428531-14.26285687 13.02857157l-4.04571375 3.70285687-0.06857157-0.06857156-2.94857156 2.88-31.54285687 28.59428531 1.23428531 1.16571469-2.53714313 2.53714312-110.4 108.68571375-41.69142843 40.93714313-37.50857157 36.89142844c-11.52 11.31428531-21.05142844 20.70857156-28.8 28.52571468l-12.34285687 12.41142844-1.71428531 1.71428531a123.84 123.84 0 0 0-27.56571469 39.08571469 158.12571469 158.12571469 0 0 0-9.05142844 22.49142844 1305.05142844 1305.05142844 0 0 0-17.28 56.29714312c-3.42857156 11.93142844-5.28 20.29714313-6.37714312 27.29142844-3.56571469 22.42285688 0.82285688 41.69142844 13.23428625 56.70857156 7.33714312 8.84571469 23.38285688 22.97142844 52.32 22.97142844 3.49714313 0 7.33714312-0.20571469 11.24571375-0.61714312l0.96-0.06857157 1.02857156-0.13714218c6.10285687-0.96 13.92-2.67428531 25.37142844-5.62285782 9.66857156-2.4 19.95428531-5.48571469 31.47428625-9.05142843 10.76571469-3.49714313 21.05142844-6.99428531 30.99428531-10.49142844a374.4 374.4 0 0 0 24.96-10.14857156c8.22857156-3.63428531 16.11428531-8.29714312 23.45142844-13.92a254.81142844 254.81142844 0 0 0 29.28-25.64571375l27.56571468-27.36c9.94285688-10.08 21.46285687-21.25714312 36.41142844-35.58857157l0.34285688-0.34285781 0.27428625-0.34285687 41.00571375-40.93714313 31.13142843-30.65142844v203.45142844c0 51.29142844-43.61142844 92.84571469-97.50857156 92.84571469H129.50857156C75.61142844 992 32 950.44571469 32 899.15428531V124.84571469C32 73.48571469 75.61142844 32 129.50857156 32h731.72571375c53.89714312 0 97.50857156 41.48571469 97.50857156 92.84571469v252c-5.48571469 2.81142844-11.24571469 4.52571469-16.38857156 8.50285687l-0.61714219 0.48zM259.65714313 751.86285688h178.83428531c22.42285688 0 40.66285688-17.34857156 40.66285687-38.67428532a39.77142844 39.77142844 0 0 0-40.66285687-38.74285687H259.65714313a39.77142844 39.77142844 0 0 0-40.66285782 38.74285687c0 21.32571469 18.24 38.67428531 40.66285781 38.67428531z m-1e-8-201.12000001h308.91428532c22.42285688 0 40.73142844-17.41714312 40.73142844-38.74285687 0-21.32571469-18.30857156-38.74285688-40.8-38.74285688H259.65714313c-22.42285688 0-40.66285688 17.41714312-40.66285782 38.74285688 0 21.32571469 18.24 38.74285688 40.66285781 38.74285688z m471.42857157-278.53714218H259.65714313c-22.42285688 0-40.66285688 17.41714312-40.66285782 38.74285687 0 21.32571469 18.24 38.74285688 40.66285781 38.74285688h471.42857157c22.42285688 0 40.66285688-17.41714312 40.66285687-38.74285688 0-21.32571469-18.24-38.74285688-40.66285687-38.74285687z" fill="#1296db" p-id="7499"></path></svg>