<?xml version="1.0" standalone="no"?><!DOCTYPE svg PUBLIC "-//W3C//DTD SVG 1.1//EN" "http://www.w3.org/Graphics/SVG/1.1/DTD/svg11.dtd"><svg t="1633006332298" class="icon" viewBox="0 0 1024 1024" version="1.1" xmlns="http://www.w3.org/2000/svg" p-id="4834" xmlns:xlink="http://www.w3.org/1999/xlink" width="64" height="64"><defs><style type="text/css"></style></defs><path d="M939.606 570.342l-384.836 173c-36.844 16.042-51.518 16.042-85.538 0l-384.836-173c-20.43-10.838-25.938-50.99-25.938-72.916 25.69 14.686 61.814 31.032 60.47 30.202L512 708.85l393.072-181.22c0.678-0.152 35.722-17.814 60.47-30.202C965.542 519.864 958.58 561.498 939.606 570.342zM939.606 389.12l-384.836 173.014c-36.844 16.028-51.518 16.028-85.538 0L84.394 389.12c-30.228-16.042-29.288-66.546 0-85.426L469.232 100.508c34.02-16.984 55.308-17.938 85.538 0l384.836 203.186C968.892 319.736 967.952 375.916 939.606 389.12zM512 135 118.928 346.408 512 512.058l393.072-165.65L512 135zM512 135M512 890.07l393.072-181.22c0.678-0.166 35.722-17.826 60.47-30.202 0 22.422-6.962 64.07-25.938 72.914l-384.836 172.984c-36.844 16.056-51.518 16.056-85.538 0L84.394 751.562c-20.43-10.85-25.938-50.99-25.938-72.914 25.69 14.686 61.814 31.032 60.47 30.202L512 890.07z" p-id="4835" fill="#1296db"></path></svg>